<svg width="72" height="72" fill="none" xmlns="http://www.w3.org/2000/svg"><path d="M26.11 43.095C24.738 41.636 24 40 24 37.348c0-4.667 3.276-8.85 8.04-10.917l1.19 1.837c-4.446 2.405-5.315 5.527-5.662 7.495.716-.371 1.653-.5 2.572-.415 2.405.223 4.301 2.197 4.301 4.652a4.666 4.666 0 0 1-4.666 4.667 5.162 5.162 0 0 1-3.664-1.572Zm13.334 0c-1.373-1.459-2.11-3.095-2.11-5.747 0-4.667 3.275-8.85 8.04-10.917l1.19 1.837c-4.447 2.405-5.316 5.527-5.663 7.495.716-.371 1.654-.5 2.572-.415 2.406.223 4.302 2.197 4.302 4.652a4.666 4.666 0 0 1-4.667 4.667 5.161 5.161 0 0 1-3.664-1.572Z" fill="#1B2F3F"/><path stroke="#1B2F3F" stroke-width="2" d="M36 2.059 69.94 36 36 69.941 2.059 36z"/></svg>