<svg width="21" height="15" fill="none" xmlns="http://www.w3.org/2000/svg"><path d="M4.56 5.97c-.224 0-.438.034-.65.065a3.58 3.58 0 0 1 .253-.68c.114-.308.292-.575.47-.844.147-.291.408-.488.6-.737.201-.242.475-.403.692-.604.213-.21.492-.315.714-.463.232-.133.434-.28.65-.35l.54-.222.473-.197L7.817 0 7.22.144c-.19.048-.424.104-.689.171-.27.05-.56.187-.882.312-.318.142-.686.238-1.028.466-.344.218-.74.4-1.09.692-.34.301-.749.562-1.05.945-.33.358-.657.734-.91 1.162-.293.408-.492.856-.702 1.299-.19.443-.343.896-.468 1.336-.237.882-.343 1.72-.384 2.437-.034.718-.014 1.315.028 1.747.015.204.043.402.063.539l.025.168.026-.006a4.5 4.5 0 1 0 4.4-5.442Zm11 0c-.224 0-.438.034-.65.065a3.58 3.58 0 0 1 .253-.68c.114-.308.292-.575.47-.844.147-.291.408-.488.6-.737.201-.242.475-.403.692-.604.213-.21.492-.315.714-.463.232-.133.434-.28.65-.35l.54-.222.473-.197L18.817 0l-.597.144c-.19.048-.424.104-.689.171-.27.05-.56.187-.882.312-.317.143-.686.238-1.028.467-.344.218-.74.4-1.09.692-.34.301-.749.562-1.05.944-.33.358-.657.734-.91 1.162-.293.408-.492.856-.702 1.299-.19.443-.343.896-.468 1.336-.237.882-.343 1.72-.384 2.437-.034.718-.014 1.315.028 1.747.015.204.043.402.063.539l.025.168.026-.006a4.5 4.5 0 1 0 4.4-5.442Z" fill="#FFC147"/></svg>