<svg width="21" height="15" fill="none" xmlns="http://www.w3.org/2000/svg"><path d="m19.951 3.721-.024-.168-.026.006A4.5 4.5 0 1 0 15.5 9c.224 0 .438-.034.65-.065-.069.232-.14.468-.253.68-.114.308-.293.575-.47.844-.148.291-.409.488-.6.737-.201.242-.476.403-.692.604-.213.21-.492.315-.714.463-.232.133-.434.28-.65.35l-.54.222-.473.197.483 1.939.597-.144c.191-.048.425-.104.69-.171.27-.05.56-.187.882-.312.316-.143.686-.238 1.027-.467.345-.218.742-.4 1.091-.692.34-.301.748-.562 1.05-.944.33-.358.656-.734.91-1.162.293-.408.491-.856.701-1.299.19-.443.343-.896.468-1.336.237-.882.343-1.72.384-2.437.034-.718.014-1.315-.027-1.747a7.017 7.017 0 0 0-.064-.539Zm-11 0-.024-.168-.026.006A4.5 4.5 0 1 0 4.5 9c.224 0 .438-.034.65-.065a3.58 3.58 0 0 1-.253.68c-.114.308-.292.575-.47.844-.147.291-.408.488-.6.737-.201.242-.475.403-.692.604-.213.21-.492.315-.714.463-.232.133-.434.28-.65.35l-.54.222-.472.195.484 1.939.597-.144c.19-.048.424-.104.689-.171.27-.05.56-.187.882-.312.317-.143.686-.238 1.028-.467.344-.218.74-.4 1.09-.692.34-.301.749-.562 1.05-.944.33-.358.657-.734.91-1.162.293-.408.492-.856.702-1.299.19-.443.343-.896.468-1.336.237-.882.343-1.72.384-2.437.034-.718.014-1.315-.028-1.747a7.577 7.577 0 0 0-.064-.537Z" fill="#FFC147"/></svg>